<?xml version="1.0" standalone="no"?>
<!DOCTYPE svg PUBLIC "-//W3C//DTD SVG 20010904//EN"
 "http://www.w3.org/TR/2001/REC-SVG-20010904/DTD/svg10.dtd">
<svg version="1.0" xmlns="http://www.w3.org/2000/svg"
 width="165.000000pt" height="165.000000pt" viewBox="0 0 165.000000 165.000000"
 preserveAspectRatio="xMidYMid meet">
<metadata>
Created by potrace 1.11, written by Peter Selinger 2001-2013
</metadata>
<g transform="translate(0.000000,165.000000) scale(0.100000,-0.100000)"
fill="#000000" stroke="none">
<path d="M260 1611 c-78 -24 -146 -88 -174 -162 -15 -40 -16 -99 -14 -599 l3
-555 27 -47 c36 -61 91 -105 152 -123 73 -22 1069 -22 1142 0 61 18 116 62
152 123 l27 47 3 555 c2 500 1 559 -14 599 -21 55 -75 116 -128 144 -41 22
-47 22 -596 24 -305 1 -566 -2 -580 -6z m1110 -22 c66 -14 127 -62 159 -123
21 -42 26 -65 29 -167 4 -105 3 -119 -12 -119 -9 0 -16 -6 -17 -12 0 -9 -2 -9
-6 1 -5 11 -7 11 -14 0 -8 -12 -11 -11 -19 1 -9 13 -10 13 -10 0 0 -9 -3 -11
-8 -4 -7 11 -105 11 -154 0 -28 -6 -39 7 -15 18 6 3 -1 3 -17 1 -16 -2 -33
-10 -38 -17 -6 -10 -8 -10 -8 2 0 13 -1 13 -11 0 -9 -12 -12 -13 -16 -1 -5 11
-7 11 -14 0 -6 -10 -9 -11 -9 -1 0 7 -13 12 -32 12 -25 0 -29 -3 -18 -10 11
-7 7 -10 -17 -10 -20 0 -33 5 -34 13 0 8 -2 8 -6 -2 -5 -11 -7 -11 -14 0 -6
10 37 59 154 177 l162 162 -448 0 -447 0 0 -175 c0 -168 -1 -175 -20 -175 -11
0 -20 6 -20 13 0 8 -4 7 -10 -3 -5 -8 -10 -10 -10 -5 0 16 -172 18 -182 3 -6
-10 -8 -9 -8 2 0 13 -1 13 -10 0 -9 -13 -11 -13 -20 0 -9 13 -10 13 -10 0 0
-10 -3 -11 -8 -4 -4 6 -23 10 -43 9 -60 -4 -62 0 -57 128 4 97 8 122 29 162
30 60 84 104 146 121 63 17 1026 20 1103 3z m-691 -170 c33 -12 36 -16 21 -39
-6 -10 -26 -15 -61 -15 -29 0 -54 -5 -56 -11 -2 -6 21 -22 52 -34 31 -12 62
-31 69 -42 12 -17 16 -10 46 67 l32 86 36 -3 c37 -3 37 -3 72 -98 l35 -95 3
93 c2 71 6 94 18 99 26 10 143 -8 164 -25 13 -10 23 -34 27 -58 7 -57 -25 -94
-90 -101 l-47 -6 0 -38 0 -39 -64 0 c-52 0 -65 3 -68 16 -5 25 -96 26 -104 2
-4 -15 -18 -18 -72 -19 -124 -1 -142 1 -162 11 -17 9 -18 14 -8 36 8 17 16 23
27 18 30 -13 79 -16 86 -5 10 17 -11 38 -43 44 -46 9 -82 44 -82 80 0 40 8 52
45 71 35 19 80 20 124 5z m407 -484 c15 -24 21 -25 105 -25 48 0 91 -5 94 -10
12 -20 -29 -90 -66 -115 l-38 -25 51 -48 c36 -34 49 -54 45 -66 -11 -27 -39
-18 -86 27 -25 23 -37 31 -28 17 10 -13 17 -33 17 -43 0 -25 -30 -34 -45 -14
-11 15 -45 24 -45 13 0 -30 15 -36 99 -36 93 0 115 -7 109 -36 -3 -17 -15 -19
-101 -22 l-97 -3 0 -27 c0 -38 -13 -54 -41 -50 -20 2 -25 10 -27 40 l-3 37
-102 3 c-101 3 -102 3 -102 28 0 25 1 25 103 28 82 2 102 6 102 17 0 9 -10 15
-24 15 -49 0 -55 43 -11 80 14 11 13 14 -7 29 -13 8 -31 14 -42 13 -18 -4 -86
53 -86 72 0 5 -7 17 -16 27 -9 10 -14 25 -11 34 5 12 25 15 97 15 72 0 90 3
90 15 0 13 25 34 42 35 4 0 15 -11 24 -25z m-301 -35 c0 -23 -5 -25 -52 -30
-46 -4 -50 -7 -39 -22 7 -9 28 -18 47 -20 26 -2 34 -8 34 -23 0 -16 -8 -21
-37 -23 -41 -3 -53 -22 -15 -22 31 0 51 -15 44 -34 -4 -10 -18 -16 -37 -16
-20 0 -30 -5 -30 -15 0 -11 11 -15 36 -15 28 0 35 -3 32 -17 -2 -12 -14 -19
-36 -21 -49 -5 -42 -32 8 -32 33 0 40 -4 40 -19 0 -26 -19 -31 -115 -31 -46 0
-87 -4 -90 -10 -4 -6 30 -10 94 -10 113 0 131 -4 131 -31 0 -28 -28 -31 -239
-27 -157 2 -193 6 -201 18 -5 8 -10 104 -10 212 0 177 2 198 18 207 10 7 93
10 217 8 l200 -2 0 -25z m190 -174 c0 -25 -78 -86 -110 -86 -29 0 -40 26 -17
45 76 64 127 80 127 41z"/>
<path d="M1007 1363 c-4 -3 -7 -19 -7 -35 0 -26 3 -29 26 -26 38 4 55 35 30
54 -21 15 -39 18 -49 7z"/>
<path d="M806 1307 c-3 -14 -9 -32 -12 -41 -5 -12 0 -16 21 -16 25 0 26 2 20
33 -10 44 -21 54 -29 24z"/>
<path d="M928 843 c8 -3 21 -18 31 -33 l17 -28 22 34 22 34 -52 -1 c-29 0 -47
-3 -40 -6z"/>
<path d="M1057 819 c-25 -44 -13 -49 26 -11 36 35 52 39 64 17 7 -12 13 -12
38 5 l30 20 -70 0 c-68 0 -71 -1 -88 -31z"/>
<path d="M1092 747 c-45 -46 -50 -57 -27 -57 9 0 20 11 25 25 10 26 29 32 47
14 15 -15 23 24 8 44 -10 14 -16 11 -53 -26z"/>
<path d="M410 814 c0 -37 4 -53 11 -48 6 3 24 -3 40 -15 15 -11 30 -21 32 -21
5 0 41 82 52 118 6 21 4 22 -45 22 l-51 0 35 -31 c58 -51 21 -83 -39 -34 -26
22 -28 27 -17 45 10 17 10 20 -3 20 -12 0 -15 -13 -15 -56z"/>
<path d="M600 850 c0 -11 7 -20 15 -20 8 0 15 9 15 20 0 11 -7 20 -15 20 -8 0
-15 -9 -15 -20z"/>
<path d="M580 770 c0 -5 16 -10 36 -10 21 0 33 4 29 10 -3 6 -19 10 -36 10
-16 0 -29 -4 -29 -10z"/>
<path d="M410 630 c0 -79 2 -90 18 -89 10 0 12 3 5 6 -20 8 -15 28 18 77 36
55 46 61 64 46 12 -10 15 -9 15 9 0 24 -12 26 -40 9 -16 -10 -23 -9 -43 10
-13 12 -26 22 -30 22 -4 0 -7 -40 -7 -90z"/>
<path d="M583 698 c2 -7 16 -13 32 -13 16 0 30 6 33 13 2 8 -8 12 -33 12 -25
0 -35 -4 -32 -12z"/>
<path d="M521 639 c0 -8 -17 -34 -37 -57 l-36 -42 52 0 c38 0 49 3 43 13 -4 6
-10 32 -14 57 -3 25 -7 38 -8 29z"/>
<path d="M580 625 c0 -10 11 -15 35 -15 24 0 35 5 35 15 0 10 -11 15 -35 15
-24 0 -35 -5 -35 -15z"/>
</g>
</svg>
